<?xml version="1.0" encoding="UTF-8" standalone="no"?>
<svg
   width="400"
   height="400"
   version="1.1"
   viewBox="0 0 1700 500"
   id="svg8"
   sodipodi:docname="vba.svg"
   inkscape:version="1.3.2 (091e20ef0f, 2023-11-25)"
   xmlns:inkscape="http://www.inkscape.org/namespaces/inkscape"
   xmlns:sodipodi="http://sodipodi.sourceforge.net/DTD/sodipodi-0.dtd"
   xmlns="http://www.w3.org/2000/svg"
   xmlns:svg="http://www.w3.org/2000/svg">
  <defs
     id="defs8" />
  <sodipodi:namedview
     id="namedview8"
     pagecolor="#505050"
     bordercolor="#ffffff"
     borderopacity="1"
     inkscape:showpageshadow="0"
     inkscape:pageopacity="0"
     inkscape:pagecheckerboard="1"
     inkscape:deskcolor="#505050"
     inkscape:zoom="1.8525"
     inkscape:cx="199.73009"
     inkscape:cy="200"
     inkscape:window-width="1920"
     inkscape:window-height="939"
     inkscape:window-x="0"
     inkscape:window-y="0"
     inkscape:window-maximized="1"
     inkscape:current-layer="svg8" />
  <g
     transform="matrix(3.2064137,0,0,3.2064137,-3166.4001,-195.05657)"
     id="g8">
    <path
       d="m 1353.5,130.36 -99.635,51.302 -99.688,-51.302 V 63.225 l 99.688,-51.303 99.635,51.303 z"
       fill="#3d87cf"
       stroke="#000000"
       stroke-miterlimit="3.864"
       stroke-width="16.067"
       id="path1" />
    <path
       d="M 1355.2,61.511 1253.74,112.448 1153.53,61.927"
       fill="none"
       stroke="#000000"
       stroke-miterlimit="3.864"
       stroke-width="16.067"
       id="path2" />
    <path
       d="m 1213,212.45 -99.687,51.302 -99.688,-51.302 v -67.083 l 99.688,-51.354 99.687,51.302 z"
       fill="#f3632e"
       stroke="#000000"
       stroke-miterlimit="3.864"
       stroke-width="16.067"
       id="path3" />
    <path
       d="m 1113,186.2 v 80.834 m 101.72,-123.44 -101.51,50.99 L 1013,144.011"
       fill="none"
       stroke="#000000"
       stroke-miterlimit="3.864"
       stroke-width="16.067"
       id="path4" />
    <path
       d="m 1491.6,212.86 -99.74,51.25 -99.635,-51.25 v -67.188 l 99.635,-51.25 99.687,51.25 z"
       fill="#912697"
       stroke="#000000"
       stroke-miterlimit="3.864"
       stroke-width="16.067"
       id="path5" />
    <path
       d="m 1391.6,186.56 v 76.146 m 101.67,-118.75 -101.51,50.989 -100.16,-50.573"
       fill="none"
       stroke="#000000"
       stroke-miterlimit="3.864"
       stroke-width="16.067"
       id="path6" />
    <path
       d="m 1353.5,214.38 -99.635,51.302 -99.688,-51.302 v -67.135 l 99.688,-51.302 99.635,51.302 z"
       fill="#fac705"
       stroke="#000000"
       stroke-miterlimit="3.864"
       stroke-width="16.067"
       id="path7" />
    <path
       d="m 1355.2,145.52 -101.46,50.99 -100.21,-50.573 m 100,42.187 v 78.49"
       fill="none"
       stroke="#000000"
       stroke-miterlimit="3.864"
       stroke-width="16.067"
       id="path8" />
  </g>
</svg>
