<svg width="160" height="160" viewBox="40 50 80 80" version="1.1" xmlns="http://www.w3.org/2000/svg"
    xmlns:xlink="http://www.w3.org/1999/xlink" xml:space="preserve" xmlns:serif="http://www.serif.com/"
    style="fill-rule:evenodd;clip-rule:evenodd;stroke-linejoin:round;">
    <g>
        <g transform="matrix(1.895,0,0,1.895,-71.8276,18.3553)">
            <path d="M94.923,29.525L94.923,47.19L79.678,56.009L79.678,38.344L94.923,29.525Z"
                style="fill:rgb(21,106,179);fill-rule:nonzero;stroke:rgb(0,120,212);stroke-width:0.14px;" />
        </g>
        <g transform="matrix(1.895,0,0,1.895,-71.8276,18.3553)">
            <path d="M94.923,29.526L79.678,38.345L64.433,29.526L79.678,20.68L94.923,29.526Z"
                style="fill:rgb(29,74,121);fill-rule:nonzero;stroke:rgb(0,120,212);stroke-width:0.14px;" />
        </g>
        <g transform="matrix(1.895,0,0,1.895,-71.8276,18.3553)">
            <path d="M79.678,38.344L79.678,56.009L64.433,47.19L64.433,29.525L79.678,38.344Z"
                style="fill:rgb(24,90,151);fill-rule:nonzero;stroke:rgb(0,120,212);stroke-width:0.14px;" />
        </g>
        <g transform="matrix(1.895,0,0,1.895,-71.8276,18.3553)">
            <path d="M64.433,47.19L79.678,38.344L79.678,56.009L64.433,47.19Z"
                style="fill:rgb(29,74,121);fill-rule:nonzero;stroke:rgb(0,120,212);stroke-width:0.14px;" />
        </g>
        <g transform="matrix(1.895,0,0,1.895,-71.8276,18.3553)">
            <path d="M94.923,47.19L79.678,38.344L79.678,56.009L94.923,47.19Z"
                style="fill:rgb(24,90,151);fill-rule:nonzero;stroke:rgb(0,120,212);stroke-width:0.14px;" />
        </g>
        <g transform="matrix(1.895,0,0,1.895,-71.8276,18.3553)">
            <path
                d="M86.215,38.929C86.078,38.906 85.938,38.896 85.798,38.901L77.146,38.901L79.678,32.53C79.769,32.557 79.862,32.576 79.956,32.586C80.013,32.59 80.07,32.581 80.123,32.558L82.794,31.696C82.889,31.66 82.975,31.603 83.044,31.529L84.797,29.581L84.741,28.802L84.324,28.441L82.293,30.694L80.067,31.417L78.454,29.971L78.927,27.69L80.958,25.436L80.54,25.047L79.761,25.103L78.009,27.05C77.952,27.127 77.905,27.211 77.87,27.3L77.285,30.026C77.27,30.122 77.277,30.219 77.306,30.311C77.335,30.402 77.385,30.486 77.452,30.555C77.452,30.555 77.174,30.639 77.119,30.722L70.247,39.596C69.773,39.919 69.377,40.344 69.088,40.84C68.799,41.336 68.625,41.89 68.578,42.462C68.498,43.46 68.805,44.452 69.438,45.229C70.07,46.006 70.978,46.51 71.972,46.635L85.047,48.832L85.047,48.804C85.186,48.832 85.297,48.86 85.436,48.888C85.576,48.888 85.715,48.916 85.854,48.916C87.108,48.915 88.317,48.443 89.24,47.593C90.162,46.742 90.731,45.576 90.833,44.326C90.928,43 90.496,41.69 89.632,40.68C88.767,39.669 87.54,39.04 86.215,38.929Z"
                style="fill:rgb(29,74,121);fill-rule:nonzero;" />
        </g>
        <g transform="matrix(1.895,0,0,1.895,-71.8276,18.3553)">
            <path
                d="M72.445,46.356C72.445,46.356 69.079,45.41 69.079,42.405C69.079,39.846 72.556,39.262 72.556,39.262L86.048,39.456C86.048,39.456 90.36,39.957 90.36,43.908C90.36,47.802 86.048,48.331 86.048,48.331L72.445,46.356Z"
                style="fill:white;fill-opacity:0.3;fill-rule:nonzero;" />
        </g>
        <g transform="matrix(1.895,0,0,1.895,-71.8276,18.3553)">
            <path
                d="M72.445,46.134C74.289,46.134 75.783,44.639 75.783,42.795C75.783,40.952 74.289,39.457 72.445,39.457C70.601,39.457 69.107,40.952 69.107,42.795C69.107,44.639 70.601,46.134 72.445,46.134Z"
                style="fill:white;fill-opacity:0.3;fill-rule:nonzero;" />
        </g>
        <g transform="matrix(1.895,0,0,1.895,-71.8276,18.3553)">
            <path d="M78.231,30.248L79.789,31.25L76.506,39.568L71.304,39.456L78.231,30.248Z"
                style="fill:white;fill-opacity:0.2;fill-rule:nonzero;" />
        </g>
        <g transform="matrix(1.895,0,0,1.895,-71.8276,18.3553)">
            <path
                d="M84.685,46.135L86.911,46.135C86.961,46.135 87.01,46.122 87.054,46.098C87.098,46.074 87.135,46.038 87.161,45.996L88.274,44.048C88.301,44.007 88.316,43.959 88.316,43.909C88.316,43.86 88.301,43.811 88.274,43.77L87.161,41.823C87.135,41.78 87.098,41.745 87.054,41.72C87.01,41.696 86.961,41.683 86.911,41.684L84.685,41.684C84.635,41.683 84.586,41.696 84.542,41.72C84.498,41.745 84.461,41.78 84.435,41.823L83.322,43.77C83.295,43.811 83.28,43.86 83.28,43.909C83.28,43.959 83.295,44.007 83.322,44.048L84.435,45.996C84.461,46.038 84.498,46.074 84.542,46.098C84.586,46.122 84.635,46.135 84.685,46.135Z"
                style="fill:white;fill-opacity:0.3;fill-rule:nonzero;" />
        </g>
        <g transform="matrix(1.895,0,0,1.895,-71.8276,18.3553)">
            <path
                d="M72.445,46.136C74.289,46.136 75.783,44.641 75.783,42.797C75.783,40.954 74.289,39.459 72.445,39.459C70.601,39.459 69.107,40.954 69.107,42.797C69.107,44.641 70.601,46.136 72.445,46.136Z"
                style="fill:none;fill-rule:nonzero;stroke:white;stroke-width:1.11px;" />
        </g>
        <g transform="matrix(1.895,0,0,1.895,-71.8276,18.3553)">
            <path
                d="M71.888,43.909L73.001,43.909C73.057,43.909 73.085,43.881 73.113,43.826L73.669,42.852C73.683,42.831 73.69,42.807 73.69,42.783C73.69,42.758 73.683,42.734 73.669,42.713L73.113,41.739C73.113,41.711 73.057,41.684 73.001,41.684L71.888,41.684C71.833,41.684 71.805,41.711 71.777,41.767L71.221,42.741C71.207,42.761 71.2,42.786 71.2,42.81C71.2,42.835 71.207,42.859 71.221,42.88L71.777,43.853C71.777,43.881 71.833,43.909 71.888,43.909Z"
                style="fill:white;fill-rule:nonzero;" />
        </g>
        <g transform="matrix(1.895,0,0,1.895,-71.8276,18.3553)">
            <path
                d="M85.798,38.902L85.798,40.014L86.132,40.014C86.641,40.052 87.138,40.192 87.592,40.426C88.046,40.661 88.449,40.984 88.775,41.377C89.258,41.945 89.568,42.639 89.669,43.377C89.77,44.116 89.657,44.867 89.344,45.544C89.031,46.22 88.53,46.792 87.902,47.193C87.273,47.593 86.543,47.805 85.798,47.804L85.464,47.804C84.955,47.766 84.458,47.626 84.004,47.392C83.55,47.157 83.147,46.834 82.821,46.441C82.338,45.873 82.028,45.179 81.927,44.441C81.826,43.702 81.939,42.951 82.252,42.274C82.565,41.598 83.066,41.026 83.694,40.625C84.323,40.225 85.053,40.013 85.798,40.014L85.798,38.902ZM85.798,38.902C84.506,38.903 83.265,39.404 82.334,40.3C81.403,41.196 80.856,42.417 80.805,43.708C80.755,44.999 81.206,46.259 82.064,47.225C82.922,48.191 84.121,48.787 85.409,48.889C85.548,48.889 85.687,48.916 85.826,48.916C87.118,48.915 88.359,48.414 89.29,47.518C90.22,46.622 90.768,45.401 90.819,44.11C90.869,42.819 90.418,41.559 89.56,40.593C88.702,39.627 87.503,39.031 86.215,38.929C86.078,38.906 85.938,38.897 85.798,38.902Z"
                style="fill:white;fill-rule:nonzero;" />
        </g>
        <g transform="matrix(1.895,0,0,1.895,-71.8276,18.3553)">
            <path
                d="M86.772,42.24L87.745,43.909L86.772,45.578L84.852,45.578L83.879,43.909L84.852,42.24L86.772,42.24ZM86.911,41.684L84.685,41.684C84.635,41.683 84.586,41.696 84.542,41.72C84.498,41.745 84.461,41.78 84.435,41.823L83.322,43.77C83.295,43.811 83.28,43.86 83.28,43.909C83.28,43.959 83.295,44.007 83.322,44.048L84.435,45.996C84.461,46.038 84.498,46.074 84.542,46.098C84.586,46.122 84.635,46.135 84.685,46.135L86.911,46.135C86.961,46.135 87.01,46.122 87.054,46.098C87.098,46.074 87.135,46.038 87.161,45.996L88.274,44.048C88.301,44.007 88.316,43.959 88.316,43.909C88.316,43.86 88.301,43.811 88.274,43.77L87.161,41.823C87.135,41.78 87.098,41.745 87.054,41.72C87.01,41.696 86.961,41.683 86.911,41.684Z"
                style="fill:white;fill-rule:nonzero;" />
        </g>
        <g transform="matrix(1.895,0,0,1.895,-71.8276,18.3553)">
            <path d="M72.028,46.107L85.103,48.305"
                style="fill:none;fill-rule:nonzero;stroke:white;stroke-width:1.11px;stroke-linejoin:miter;stroke-miterlimit:10;" />
        </g>
        <g transform="matrix(1.895,0,0,1.895,-71.8276,18.3553)">
            <path d="M85.798,39.459L72.445,39.459"
                style="fill:none;fill-rule:nonzero;stroke:white;stroke-width:1.11px;stroke-linejoin:miter;stroke-miterlimit:10;" />
        </g>
        <g transform="matrix(1.895,0,0,1.895,-71.8276,18.3553)">
            <path
                d="M70.664,39.958L77.591,31.084C77.725,30.922 77.916,30.82 78.125,30.799C78.333,30.778 78.542,30.84 78.704,30.973L79.038,31.279C79.156,31.378 79.238,31.513 79.273,31.664C79.308,31.814 79.294,31.972 79.233,32.113L76.34,39.457"
                style="fill:none;fill-rule:nonzero;stroke:white;stroke-width:1.11px;" />
        </g>
        <g transform="matrix(1.895,0,0,1.895,-71.8276,18.3553)">
            <path
                d="M84.824,28.748L84.407,28.358L82.376,30.612L80.151,31.335L78.565,29.888L79.038,27.607L81.069,25.354L80.624,24.992L79.845,25.048L78.092,26.995C78.035,27.072 77.989,27.157 77.953,27.246L77.369,29.972C77.353,30.067 77.36,30.164 77.389,30.256C77.418,30.348 77.469,30.432 77.536,30.5L79.622,32.364C79.724,32.45 79.851,32.499 79.984,32.503C80.041,32.508 80.098,32.498 80.151,32.475L82.821,31.613C82.917,31.578 83.002,31.52 83.072,31.446L84.824,29.499L84.824,28.748Z"
                style="fill:white;fill-rule:nonzero;stroke:white;stroke-width:0.28px;stroke-linejoin:miter;stroke-miterlimit:10;" />
        </g>
    </g>
    <defs>
        <linearGradient id="_Linear1" x1="0" y1="0" x2="1" y2="0" gradientUnits="userSpaceOnUse"
            gradientTransform="matrix(1.04961e-14,171.415,-171.415,1.04961e-14,79.6785,8.2793)">
            <stop offset="0" style="stop-color:rgb(0,171,222);stop-opacity:1" />
            <stop offset="1" style="stop-color:rgb(0,126,216);stop-opacity:1" />
        </linearGradient>
        <linearGradient id="_Linear2" x1="0" y1="0" x2="1" y2="0" gradientUnits="userSpaceOnUse"
            gradientTransform="matrix(2.18039e-15,-35.6085,35.6085,2.18039e-15,79.6779,56.148)">
            <stop offset="0" style="stop-color:rgb(29,74,121);stop-opacity:1" />
            <stop offset="1" style="stop-color:rgb(69,202,242);stop-opacity:1" />
        </linearGradient>
    </defs>
</svg>