<svg width="48" height="48" viewBox="12 12 24 24" xmlns="http://www.w3.org/2000/svg">
    <g clip-path="url(#clip0_2096_7412)">
        <path
                d="M15.9388 19.0211C15.9079 19.0213 15.8773 19.0153 15.8488 19.0036C15.8202 18.9919 15.7943 18.9746 15.7724 18.9528C15.7506 18.9309 15.7333 18.905 15.7216 18.8764C15.7099 18.8479 15.7039 18.8173 15.7041 18.7864C15.703 18.0763 15.4205 17.3956 14.9184 16.8935C14.4163 16.3914 13.7355 16.1088 13.0254 16.1078C12.9634 16.1078 12.9039 16.0832 12.86 16.0395C12.816 15.9958 12.7911 15.9364 12.7908 15.8744C12.7908 15.8122 12.8155 15.7525 12.8595 15.7085C12.9035 15.6645 12.9632 15.6398 13.0254 15.6398C13.7358 15.6387 14.4167 15.356 14.9188 14.8536C15.421 14.3512 15.7034 13.6701 15.7041 12.9598C15.7039 12.9289 15.7099 12.8983 15.7216 12.8698C15.7333 12.8412 15.7506 12.8153 15.7724 12.7934C15.7943 12.7716 15.8202 12.7543 15.8488 12.7426C15.8773 12.7309 15.9079 12.7249 15.9388 12.7251C15.9696 12.7249 16.0002 12.7309 16.0288 12.7426C16.0573 12.7543 16.0833 12.7716 16.1051 12.7934C16.1269 12.8153 16.1442 12.8412 16.1559 12.8698C16.1677 12.8983 16.1736 12.9289 16.1734 12.9598C16.1745 13.6699 16.4571 14.3506 16.9592 14.8527C17.4613 15.3548 18.142 15.6374 18.8521 15.6384C18.883 15.6383 18.9136 15.6442 18.9421 15.6559C18.9707 15.6677 18.9966 15.6849 19.0184 15.7068C19.0403 15.7286 19.0575 15.7545 19.0693 15.7831C19.081 15.8116 19.0869 15.8422 19.0868 15.8731C19.0869 15.904 19.081 15.9346 19.0693 15.9631C19.0575 15.9917 19.0403 16.0176 19.0184 16.0394C18.9966 16.0613 18.9707 16.0785 18.9421 16.0903C18.9136 16.102 18.883 16.1079 18.8521 16.1078C18.1419 16.1085 17.461 16.3909 16.9588 16.8931C16.4566 17.3953 16.1741 18.0762 16.1734 18.7864C16.1731 18.8486 16.1483 18.908 16.1043 18.952C16.0604 18.9959 16.0009 19.0208 15.9388 19.0211Z"
                fill="#50E6FF"/>
        <path
                d="M32.8146 35.2744C32.7647 35.2744 32.7169 35.2546 32.6816 35.2193C32.6464 35.1841 32.6266 35.1363 32.6266 35.0864C32.6259 34.5184 32.3999 33.9738 31.9982 33.5721C31.5965 33.1704 31.052 32.9444 30.4839 32.9437C30.4343 32.9437 30.3867 32.9241 30.3514 32.8891C30.3162 32.8542 30.2963 32.8067 30.2959 32.7571C30.2959 32.7072 30.3157 32.6594 30.351 32.6241C30.3862 32.5889 30.434 32.5691 30.4839 32.5691C31.0521 32.5687 31.5969 32.3429 31.9986 31.9411C32.4004 31.5394 32.6262 30.9946 32.6266 30.4264C32.6266 30.3765 32.6464 30.3287 32.6816 30.2935C32.7169 30.2582 32.7647 30.2384 32.8146 30.2384C32.8644 30.2384 32.9122 30.2582 32.9475 30.2935C32.9828 30.3287 33.0026 30.3765 33.0026 30.4264C33.0029 30.9946 33.2288 31.5394 33.6305 31.9411C34.0323 32.3429 34.5771 32.5687 35.1452 32.5691C35.1951 32.5691 35.2429 32.5889 35.2782 32.6241C35.3134 32.6594 35.3332 32.7072 35.3332 32.7571C35.3332 32.8069 35.3134 32.8547 35.2782 32.89C35.2429 32.9253 35.1951 32.9451 35.1452 32.9451C34.5772 32.9458 34.0326 33.1717 33.6309 33.5734C33.2292 33.9751 33.0033 34.5197 33.0026 35.0877C33.0022 35.1374 32.9822 35.1848 32.947 35.2198C32.9118 35.2548 32.8642 35.2744 32.8146 35.2744Z"
                fill="#50E6FF"/>
        <path
                d="M31.9587 22.0397C32.3348 23.6138 32.2356 25.2641 31.6738 26.7818C31.112 28.2995 30.1127 29.6166 28.8023 30.5664C27.492 31.5162 25.9294 32.0561 24.3122 32.1178C22.695 32.1796 21.0958 31.7604 19.7169 30.9132C18.3379 30.0661 17.2411 28.8291 16.5652 27.3586C15.8893 25.8881 15.6646 24.2502 15.9196 22.652C16.1745 21.0539 16.8977 19.5672 17.9975 18.38C19.0974 17.1928 20.5247 16.3584 22.0987 15.9824C24.2095 15.4782 26.4342 15.833 28.2833 16.969C30.1324 18.105 31.4545 19.929 31.9587 22.0397Z"
                fill="url(#paint0_radial_2096_7412)"/>
        <mask id="mask0_2096_7412" style="mask-type:luminance" maskUnits="userSpaceOnUse" x="15" y="15" width="18"
              height="18">
            <path
                    d="M31.9587 22.0397C32.3348 23.6138 32.2356 25.2641 31.6738 26.7818C31.112 28.2995 30.1127 29.6166 28.8023 30.5664C27.492 31.5162 25.9294 32.0561 24.3122 32.1178C22.695 32.1796 21.0958 31.7604 19.7169 30.9132C18.3379 30.0661 17.2411 28.8291 16.5652 27.3586C15.8893 25.8881 15.6646 24.2502 15.9196 22.652C16.1745 21.0539 16.8977 19.5672 17.9975 18.38C19.0974 17.1928 20.5247 16.3584 22.0987 15.9824C24.2095 15.4782 26.4342 15.833 28.2833 16.969C30.1324 18.105 31.4545 19.929 31.9587 22.0397Z"
                    fill="white"/>
        </mask>
        <g mask="url(#mask0_2096_7412)">
            <path
                    d="M19.612 29.4864C19.9032 29.494 20.193 29.4433 20.4644 29.3372C20.7357 29.2312 20.9831 29.0719 21.1919 28.8687C21.4008 28.6656 21.5669 28.4227 21.6804 28.1544C21.794 27.8861 21.8527 27.5978 21.8532 27.3065C21.8536 27.0152 21.7957 26.7267 21.683 26.458C21.5703 26.1894 21.4049 25.946 21.1967 25.7422C20.9885 25.5385 20.7416 25.3784 20.4706 25.2715C20.1996 25.1646 19.9099 25.113 19.6186 25.1197C19.6251 25.0577 19.6282 24.9954 19.628 24.9331C19.6227 24.3504 19.3866 23.7936 18.9715 23.3847C18.5563 22.9758 17.996 22.7482 17.4133 22.7517H15.776C15.6158 23.9615 15.7232 25.1918 16.0907 26.3555C16.4582 27.5192 17.0767 28.588 17.9026 29.4864H19.612Z"
                    fill="#F2F2F2"/>
            <path
                    d="M32.06 22.4197C32.06 22.3997 32.06 22.3797 32.0506 22.3611C31.7869 20.9343 31.1387 19.6066 30.176 18.5211C30.0511 18.4705 29.9222 18.4303 29.7906 18.4011C29.4403 18.3011 29.0718 18.2819 28.713 18.345C28.3541 18.4081 28.0143 18.5518 27.719 18.7653C27.4238 18.9788 27.1808 19.2565 27.0085 19.5775C26.8361 19.8984 26.7388 20.2544 26.724 20.6184C26.6354 20.6082 26.5464 20.6024 26.4573 20.6011C25.9112 20.601 25.3826 20.794 24.9649 21.1458C24.5473 21.4977 24.2674 21.9858 24.1747 22.524C24.082 23.0622 24.1825 23.6159 24.4584 24.0872C24.7344 24.5585 25.168 24.9171 25.6826 25.0997C25.9124 25.1898 26.1572 25.235 26.404 25.2331H29.1106C30.1974 24.4104 31.1869 23.4665 32.06 22.4197Z"
                    fill="#F2F2F2"/>
        </g>
        <path
                d="M34.9214 17.1091C34.0827 15.7131 32.1214 15.1691 29.3814 15.5771C28.4426 15.7101 27.5148 15.9116 26.6054 16.1798C27.3268 16.4288 28.0119 16.7727 28.6427 17.2024C28.964 17.1318 29.2867 17.0478 29.596 17.0011C30.0827 16.9253 30.5742 16.8857 31.0667 16.8824C31.5482 16.813 32.0393 16.8651 32.4955 17.0339C32.9517 17.2028 33.3584 17.483 33.6787 17.8491C34.1894 18.6998 33.7587 20.1544 32.4974 21.8491C30.7444 24.031 28.5963 25.8633 26.1654 27.2504C23.7889 28.7337 21.1547 29.7568 18.4 30.2664C16.3147 30.5784 14.824 30.2664 14.3134 29.4184C13.8027 28.5704 14.2334 27.1118 15.4947 25.4251C15.6507 25.2158 15.6894 25.1131 15.8667 24.9024C15.7834 24.1796 15.795 23.4489 15.9014 22.7291C15.3345 23.2973 14.8129 23.9089 14.3414 24.5584C12.6894 26.7678 12.2414 28.7544 13.0787 30.1504C13.521 30.7422 14.111 31.2075 14.7895 31.4997C15.4681 31.792 16.2115 31.9009 16.9454 31.8158C17.5039 31.8128 18.0615 31.7682 18.6134 31.6824C21.5538 31.1458 24.3668 30.0602 26.9054 28.4824C29.498 26.9987 31.7874 25.0391 33.6534 22.7064C35.3107 20.4918 35.7587 18.5064 34.9214 17.1091Z"
                fill="#50E6FF"/>
    </g>
    <defs>
        <radialGradient id="paint0_radial_2096_7412" cx="0" cy="0" r="1" gradientUnits="userSpaceOnUse"
                        gradientTransform="translate(23.9371 23.9383) scale(8.22446 8.15301)">
            <stop offset="0.183" stop-color="#5EA0EF"/>
            <stop offset="1" stop-color="#0078D4"/>
        </radialGradient>
        <clipPath id="clip0_2096_7412">
            <rect width="24" height="24" fill="white" transform="translate(12 11.9998)"/>
        </clipPath>
    </defs>
</svg>